# File created by Blade
# Date/Time:  Tue Jan 27 19:00:36 2015
# Frame Rate: 120.000 fps
#------------------------------------------------------
:FULLY-SPECIFIED
:DEGREES
2798
root -0.916837 31.865169 -6.431613 8.888924 -35.858757 -12.236422
Spine 7.057694 0.455532 -0.154050
Head 11.885395 -2.068800 13.278663
LeftShoulder -17.475963 19.865288 13.422351
LeftArm -1.632149 -44.839253 -76.643404
LeftForeArm -0.336929 -0.000000 104.530081
LeftHand -14.076589 0.000000 30.121075
LeftHandThumb1 -26.253704 0.000000 33.147579
RightShoulder -8.382415 2.018084 -5.515823
RightArm 16.069574 -45.466706 78.231388
RightForeArm -34.941541 0.000000 59.215763
RightHand -13.157714 -0.000000 -4.758231
RightHandThumb1 -24.326973 -0.000000 -32.862282
LeftUpLeg -11.044803 20.774723 -3.290958
LeftLeg 16.570224 -0.000000 -0.000000
LeftFoot -34.678974 39.123899 -24.890729
LeftToeBase 9.871295 -0.000000 -0.000000
RightUpLeg -63.585105 -47.455295 16.540809
RightLeg 84.783143 -0.000000 -0.000000
RightFoot -13.272346 -23.035412 19.159155
RightToeBase 1.107408 -0.000000 -0.000000
2799
root -0.931029 31.871677 -6.465941 9.063137 -35.713220 -12.359311
Spine 7.047007 0.358841 -0.071000
Head 11.646042 -1.771584 13.385386
LeftShoulder -17.504755 19.849403 13.431946
LeftArm -1.612666 -44.836322 -76.552772
LeftForeArm -0.379138 -0.000000 104.464706
LeftHand -14.108191 -0.000000 30.115478
LeftHandThumb1 -26.253704 0.000000 33.147579
RightShoulder -8.382423 2.063398 -5.509393
RightArm 16.016251 -45.663700 78.272431
RightForeArm -34.618236 0.000000 59.169335
RightHand -13.053664 -0.000000 -4.433618
RightHandThumb1 -24.326973 -0.000000 -32.862282
LeftUpLeg -11.305245 20.737148 -3.162589
LeftLeg 16.787611 -0.000000 -0.000000
LeftFoot -34.638894 38.978384 -24.856754
LeftToeBase 10.280096 -0.000000 -0.000000
RightUpLeg -63.446055 -47.402798 16.593215
RightLeg 84.712361 -0.000000 -0.000000
RightFoot -12.976821 -23.533023 17.739567
RightToeBase 0.810892 -0.000000 -0.000000
2800
root -0.940888 31.873909 -6.499803 9.190932 -35.574731 -12.390201
Spine 7.040448 0.282224 -0.072870
Head 11.370104 -1.469225 13.504527
LeftShoulder -17.511621 19.832961 13.481546
LeftArm -1.606696 -44.827711 -76.482637
LeftForeArm -0.398534 -0.000000 104.413514
LeftHand -14.145855 -0.000000 30.062817
LeftHandThumb1 -26.253704 0.000000 33.147579
RightShoulder -8.399167 2.093452 -5.536330
RightArm 15.991491 -45.850857 78.305757
RightForeArm -34.383758 0.000000 59.107730
RightHand -12.882130 -0.000000 -4.226755
RightHandThumb1 -24.326973 -0.000000 -32.862282
LeftUpLeg -11.582806 20.665970 -3.128204
LeftLeg 17.001881 -0.000000 -0.000000
LeftFoot -34.595956 38.899221 -24.830435
LeftToeBase 10.262235 -0.000000 -0.000000
RightUpLeg -63.412019 -47.369201 16.651336
RightLeg 84.692014 -0.000000 -0.000000
RightFoot -12.742157 -24.065253 16.426827
RightToeBase 0.787899 -0.000000 -0.000000
2801
root -0.953551 31.878863 -6.541086 9.402147 -35.449546 -12.524375
Spine 7.028750 0.248729 0.013380
Head 11.065975 -1.169949 13.611071
LeftShoulder -17.493854 19.799806 13.515571
LeftArm -1.616919 -44.841984 -76.391108
LeftForeArm -0.418008 -0.000000 104.374670
LeftHand -14.146891 -0.000000 30.016318
LeftHandThumb1 -26.253704 0.000000 33.147579
RightShoulder -8.414971 2.135425 -5.569080
RightArm 15.957477 -46.013846 78.324589
RightForeArm -34.211930 0.000000 59.067244
RightHand -12.721383 -0.000000 -3.992381
RightHandThumb1 -24.326973 -0.000000 -32.862282
LeftUpLeg -11.905719 20.629519 -3.014090
LeftLeg 17.247222 -0.000000 -0.000000
LeftFoot -34.668365 38.916706 -24.927025
LeftToeBase 9.719292 -0.000000 -0.000000
RightUpLeg -63.438379 -47.300322 16.905000
RightLeg 84.623473 -0.000000 -0.000000
RightFoot -12.686560 -24.731299 15.438062
RightToeBase 0.899683 -0.000000 -0.000000
2802
root -0.966866 31.883484 -6.587851 9.658090 -35.320947 -12.683271
Spine 7.001710 0.222252 0.115294
Head 10.730311 -0.812309 13.724189
LeftShoulder -17.447985 19.737116 13.561410
LeftArm -1.674407 -44.887469 -76.257853
LeftForeArm -0.417308 -0.000000 104.351037
LeftHand -14.244806 -0.000000 30.112656
LeftHandThumb1 -26.253704 0.000000 33.147579
RightShoulder -8.422015 2.168299 -5.611972
RightArm 15.950035 -46.140715 78.320186
RightForeArm -34.118951 -0.000000 59.036608
RightHand -12.568229 -0.000000 -3.753299
RightHandThumb1 -24.326973 -0.000000 -32.862282
LeftUpLeg -12.320861 20.729394 -2.902653
LeftLeg 17.578173 -0.000000 -0.000000
LeftFoot -34.650607 38.747352 -24.880959
LeftToeBase 9.764464 -0.000000 -0.000000
RightUpLeg -63.582502 -47.229929 17.273173
RightLeg 84.588846 -0.000000 -0.000000
RightFoot -12.737691 -25.305753 14.970793
RightToeBase 0.836253 -0.000000 -0.000000
2803
root -0.977378 31.886646 -6.631367 9.894900 -35.199869 -12.816467
Spine 6.982253 0.183146 0.207580
Head 10.389246 -0.443839 13.790269
LeftShoulder -17.426082 19.712787 13.593898
LeftArm -1.687505 -44.951315 -76.189279
LeftForeArm -0.351356 -0.000000 104.316573
LeftHand -14.306532 0.000000 30.114646
LeftHandThumb1 -26.253704 0.000000 33.147579
RightShoulder -8.407607 2.194924 -5.666791
RightArm 15.959423 -46.270364 78.276613
RightForeArm -34.110269 0.000000 59.027721
RightHand -12.582656 -0.000000 -3.644384
RightHandThumb1 -24.326973 -0.000000 -32.862282
LeftUpLeg -12.679497 20.698131 -2.812107
LeftLeg 17.824983 -0.000000 -0.000000
LeftFoot -34.880906 38.597581 -25.158913
LeftToeBase 10.047326 -0.000000 -0.000000
RightUpLeg -63.772536 -47.192399 17.659088
RightLeg 84.586109 -0.000000 -0.000000
RightFoot -12.805229 -25.870725 14.613583
RightToeBase 0.660353 -0.000000 -0.000000
2804
root -0.976587 31.882339 -6.668378 10.073166 -35.103855 -12.706453
Spine 6.869552 0.136037 0.084056
Head 10.025072 -0.051116 13.865010
LeftShoulder -17.403269 19.683365 13.673197
LeftArm -1.761214 -44.994770 -76.086587
LeftForeArm -0.297124 -0.000000 104.273754
LeftHand -14.368738 0.000000 30.209462
LeftHandThumb1 -26.253704 0.000000 33.147579
RightShoulder -8.393554 2.220318 -5.751445
RightArm 15.904927 -46.385111 78.319466
RightForeArm -34.142795 -0.000000 59.036422
RightHand -12.589304 0.000000 -3.658263
RightHandThumb1 -24.326973 -0.000000 -32.862282
LeftUpLeg -13.069215 20.605504 -2.960089
LeftLeg 17.948115 -0.000000 -0.000000
LeftFoot -34.849171 38.578721 -25.147221
LeftToeBase 10.194823 -0.000000 -0.000000
RightUpLeg -64.220383 -47.185296 17.998071
RightLeg 84.694597 -0.000000 -0.000000
RightFoot -12.831883 -26.417083 14.188779
RightToeBase 0.482504 -0.000000 -0.000000
2805
root -0.985350 31.889409 -6.716710 10.296436 -35.033767 -12.927212
Spine 6.977158 0.139826 0.257579
Head 9.597035 0.426015 13.902551
LeftShoulder -17.373915 19.631479 13.671611
LeftArm -1.780911 -45.111726 -76.036411
LeftForeArm -0.209896 -0.000000 104.232517
LeftHand -14.413927 -0.000000 30.286255
LeftHandThumb1 -26.253704 0.000000 33.147579
RightShoulder -8.311797 2.284673 -5.795483
RightArm 15.901631 -46.416133 78.245037
RightForeArm -34.181234 0.000000 59.046045
RightHand -12.494262 -0.000000 -3.666368
RightHandThumb1 -24.326973 -0.000000 -32.862282
LeftUpLeg -13.338110 20.715789 -2.774117
LeftLeg 18.138754 -0.000000 -0.000000
LeftFoot -34.776304 38.444232 -25.045359
LeftToeBase 10.181225 -0.000000 -0.000000
RightUpLeg -64.385518 -47.119387 18.488731
RightLeg 84.651301 -0.000000 -0.000000
RightFoot -12.831154 -27.044083 13.673087
RightToeBase 0.280801 -0.000000 -0.000000
2806
root -0.987447 31.890247 -6.760673 10.488512 -34.960630 -12.958509
Spine 6.984063 0.138719 0.260696
Head 9.182817 0.892863 13.945370
LeftShoulder -17.322949 19.561011 13.743817
LeftArm -1.848899 -45.207653 -75.968235
LeftForeArm -0.171621 -0.000000 104.179284
LeftHand -14.485907 -0.000000 30.422623
LeftHandThumb1 -26.253704 0.000000 33.147579
RightShoulder -8.268022 2.340376 -5.840811
RightArm 15.857243 -46.440130 78.219548
RightForeArm -34.164921 -0.000000 59.071990
RightHand -12.617889 -0.000000 -3.706495
RightHandThumb1 -24.326973 -0.000000 -32.862282
LeftUpLeg -13.664671 20.762819 -2.788249
LeftLeg 18.269635 -0.000000 -0.000000
LeftFoot -34.777328 38.301883 -25.043088
LeftToeBase 10.203126 -0.000000 -0.000000
RightUpLeg -64.778480 -47.095024 18.963034
RightLeg 84.720066 -0.000000 -0.000000
RightFoot -12.862455 -27.516311 13.344604
RightToeBase 0.340282 -0.000000 -0.000000
2807
root -0.994469 31.894752 -6.810141 10.738658 -34.914024 -13.072284
Spine 6.982341 0.188485 0.321096
Head 8.777669 1.349679 13.976651
LeftShoulder -17.264109 19.506743 13.816884
LeftArm -1.845829 -45.315522 -75.949556
LeftForeArm -0.127657 -0.000000 104.098002
LeftHand -14.499877 -0.000000 30.611275
LeftHandThumb1 -26.253704 0.000000 33.147579
RightShoulder -8.213844 2.367682 -5.858046
RightArm 15.859392 -46.415741 78.153111
RightForeArm -34.154267 0.000000 59.058439
RightHand -12.580933 0.000000 -3.785508
RightHandThumb1 -24.326973 -0.000000 -32.862282
LeftUpLeg -14.002008 20.873411 -2.733413
LeftLeg 18.378580 -0.000000 -0.000000
LeftFoot -34.545020 38.230354 -24.797828
LeftToeBase 10.013283 -0.000000 -0.000000
RightUpLeg -65.186127 -47.020160 19.542735
RightLeg 84.767347 -0.000000 -0.000000
RightFoot -12.882994 -27.954421 12.944560
RightToeBase 0.185290 -0.000000 -0.000000
2808
root -0.992572 31.892334 -6.849143 10.889995 -34.892402 -12.996137
Spine 6.958120 0.234783 0.226425
Head 8.375563 1.832667 13.965483
LeftShoulder -17.203394 19.446400 13.919134
LeftArm -1.879892 -45.421932 -75.922568
LeftForeArm -0.088708 0.000000 104.019811
LeftHand -14.569362 -0.000000 30.720517
LeftHandThumb1 -26.253704 0.000000 33.147579
RightShoulder -8.180170 2.413251 -5.913876
RightArm 15.806532 -46.392253 78.166567
RightForeArm -34.082373 0.000000 59.037910
RightHand -12.727432 -0.000000 -3.965455
RightHandThumb1 -24.326973 -0.000000 -32.862282
LeftUpLeg -14.314374 20.898322 -2.859321
LeftLeg 18.465489 -0.000000 -0.000000
LeftFoot -34.826948 37.997833 -25.187263
LeftToeBase 10.343164 -0.000000 -0.000000
RightUpLeg -65.678727 -46.977075 19.989219
RightLeg 84.883699 -0.000000 -0.000000
RightFoot -13.027889 -28.234596 12.793064
RightToeBase 0.398438 -0.000000 -0.000000
2809
root -0.993205 31.892359 -6.887138 11.089143 -34.835249 -12.990319
Spine 6.923825 0.242880 0.225957
Head 7.992919 2.323484 13.903266
LeftShoulder -17.164291 19.406339 13.955295
LeftArm -1.863694 -45.538993 -75.906042
LeftForeArm -0.086221 -0.000000 103.933128
LeftHand -14.640288 -0.000000 30.874526
LeftHandThumb1 -26.253704 0.000000 33.147579
RightShoulder -8.122212 2.404512 -5.967035
RightArm 15.801757 -46.314057 78.137519
RightForeArm -33.948167 0.000000 59.001415
RightHand -12.781991 -0.000000 -4.165637
RightHandThumb1 -24.326973 -0.000000 -32.862282
LeftUpLeg -14.620879 20.867549 -2.908824
LeftLeg 18.528135 -0.000000 -0.000000
LeftFoot -34.872230 37.898085 -25.228745
LeftToeBase 10.488810 -0.000000 -0.000000
RightUpLeg -66.190379 -46.969163 20.535363
RightLeg 84.959538 -0.000000 -0.000000
RightFoot -13.127725 -28.483962 12.689888
RightToeBase -0.070165 -0.000000 0.000000
